<svg width="16" height="16" viewBox="0 0 170 170" fill="currentColor" xmlns="http://www.w3.org/2000/svg">
<path d="M150.37 130.25c-2.45 5.66-5.35 10.87-8.71 15.66-4.58 6.53-8.33 11.05-11.22 13.56-4.48 4.12-9.28 6.23-14.42 6.35-3.69 0-8.14-1.05-13.32-3.18-5.19-2.12-9.97-3.17-14.34-3.17-4.58 0-9.49 1.05-14.75 3.17-5.26 2.13-9.5 3.24-12.74 3.35-4.35.13-9.16-1.9-14.42-6.08-3.7-3.05-7.61-7.7-11.73-13.97-6.09-9.12-10.96-19.49-14.61-31.11-3.65-11.61-5.48-22.37-5.48-32.27 0-14.78 3.7-26.65 11.09-35.61 7.39-8.96 16.57-13.51 27.54-13.65 4.35 0 9.27 1.15 14.75 3.46 5.48 2.3 9.4 3.51 11.74 3.61 2.33 0 6.46-1.25 12.38-3.76 5.92-2.51 10.91-3.66 14.97-3.46 11.09.54 20.08 4.58 26.96 12.12-9.79 5.86-14.58 14.15-14.37 24.87.21 8.25 3.42 15.17 9.63 20.76 6.21 5.58 13.58 8.8 22.11 9.63-2.22 6.64-4.87 13.43-7.95 20.37zM119.22 31.84c0-7.39 2.65-14.34 7.95-20.85 5.3-6.52 11.89-10.45 19.78-11.79.43 1.09.65 2.18.65 3.27 0 7.39-2.77 14.51-8.31 21.36-5.54 6.85-12.18 10.76-19.92 11.73-.07-1.23-.15-2.47-.15-3.72z"/>
</svg>
